<?xml version="1.0" encoding="UTF-8"?>
<svg xmlns="http://www.w3.org/2000/svg" width="69" height="24" viewBox="0 0 69 24">
  <path fill="#323232" fill-rule="evenodd" d="M30.402 4.989l.544.654-.787 1.522c.538.658.806 1.548.806 2.672 0 1.375-.466 2.432-1.397 3.171-.932.74-2.291 1.11-4.077 1.11-.548 0-1.082-.034-1.602-.1l-.387-.057-.312.986c.017.251.177.487.481.707.26.19.571.297.933.324l.185.007h2.848c2.973 0 4.46 1.141 4.46 3.424 0 .942-.259 1.753-.774 2.432-.516.678-1.274 1.208-2.276 1.588-1 .38-2.247.571-3.738.571-1.768 0-3.138-.253-4.108-.759-.971-.506-1.457-1.2-1.457-2.081 0-.39.158-.766.475-1.129.316-.363.93-.808 1.84-1.336-.512-.199-.947-.544-1.307-1.037-.315-.431-.492-.882-.531-1.353l-.009-.204 2.172-2.464c-1.543-.648-2.315-1.915-2.315-3.8 0-1.349.473-2.388 1.418-3.119.944-.73 2.297-1.096 4.056-1.096.373 0 .852.033 1.437.097.512.057.903.122 1.173.195l.108.032 2.14-.957zm-2.804 14.07h-4.122c-.763.553-1.144 1.18-1.144 1.88 0 .553.266.968.8 1.245.532.277 1.263.415 2.19.415 1.257 0 2.226-.203 2.906-.61.68-.406 1.021-.972 1.021-1.698 0-.822-.55-1.232-1.651-1.232zM43.37 3.186V5.91h2.56v1.362h-2.56v7.773a1.66 1.66 0 0 0 1.665 1.661c.288 0 .46-.02.698-.072.125.375.301.695.526.964l-.11.059c-.29.153-.583.274-1.127.43a6.072 6.072 0 0 1-1.712.22c-1.163 0-2.062-.262-2.695-.786-.633-.525-.95-1.28-.95-2.27v-7.98h-1.62v-.88l1.886-.481 1.5-2.725h1.94zM12.067 0v16.9l1.147.264v.88H8.628l-.264-.676c-.46.329-.847.536-1.11.624-.266.091-.515.165-.843.226-.327.06-.689.09-1.085.09-1.792 0-3.128-.513-4.007-1.54C.44 15.74 0 14.16 0 12.03c0-2.097.472-3.692 1.415-4.783.944-1.092 2.311-1.638 4.104-1.638a11.9 11.9 0 0 1 2.434.256l.409.093V1.144L7.215.88V0h4.852zm55.077 14.604c.514 0 .952.179 1.314.536.361.357.542.796.542 1.316 0 .513-.179.95-.537 1.31-.358.362-.798.542-1.32.542-.514 0-.952-.179-1.313-.535a1.777 1.777 0 0 1-.543-1.317c0-.513.18-.95.537-1.31.358-.361.798-.542 1.32-.542zM52.518 5.655c2.949 0 4.468 1.05 4.558 3.152l.004.2V16.9l1.147.264v.88h-4.404l-.284-.928c-.672.456-1.28.767-1.823.935a5.535 5.535 0 0 1-1.641.251c-2.507 0-3.761-1.203-3.761-3.61 0-.91.185-1.639.556-2.185.37-.545.904-.95 1.602-1.212.645-.241 1.63-.386 2.957-.434l.339-.01 1.607-.039V9.046c-.03-1.461-.63-2.192-1.827-2.192-.651 0-1.463.181-2.273.543l-.269.128-.35 1.508h-.882V6.107c1.301-.198 2.258-.323 2.87-.374a22.313 22.313 0 0 1 1.874-.078zm-33.921.27V16.9l1.147.264v.88h-6v-.88l1.148-.264V7.07l-1.147-.264-.001-.88h4.853zm18.565 0V16.9l1.148.264v.88h-6v-.88l1.147-.264V7.07l-1.147-.264v-.88h4.852zM63.61 0v16.9l1.147.264v.88h-5.999v-.88l1.147-.264V1.144L58.758.88V0h4.852zM6.242 6.924c-.775 0-1.378.424-1.809 1.27-.43.847-.646 2.091-.646 3.733 0 1.607.202 2.834.607 3.68.405.847.987 1.27 1.745 1.27.602 0 1.286-.141 1.943-.423l.28-.13v-9.13a8.455 8.455 0 0 0-2.12-.27zm47.133 5.035l-1.116.04c-.836.034-1.415.253-1.738.656-.323.405-.485 1.058-.485 1.96 0 .73.13 1.268.388 1.612.258.343.594.515 1.008.515.513 0 1.065-.115 1.677-.345l.266-.106v-4.332zm-27.91-5.027c-.598 0-1.033.236-1.306.707-.273.471-.41 1.204-.41 2.198 0 .995.134 1.74.403 2.237.269.498.706.746 1.313.746.642 0 1.106-.248 1.392-.746.286-.497.429-1.242.429-2.237 0-.994-.141-1.727-.423-2.198-.282-.471-.748-.707-1.398-.707zM35.31.645c.514 0 .952.179 1.314.536.361.357.542.795.542 1.316 0 .513-.179.95-.537 1.31-.357.361-.797.542-1.32.542-.514 0-.952-.179-1.313-.536a1.777 1.777 0 0 1-.543-1.316c0-.513.18-.95.537-1.31.358-.361.798-.542 1.32-.542zm-18.566 0c.515 0 .952.179 1.314.536.362.357.543.795.543 1.316 0 .513-.18.95-.537 1.31-.358.361-.798.542-1.32.542-.514 0-.952-.179-1.314-.536a1.777 1.777 0 0 1-.542-1.316c0-.513.179-.95.537-1.31.357-.361.797-.542 1.32-.542z"></path>
</svg>
