<?xml version="1.0" encoding="UTF-8"?>
<svg xmlns:dc="http://purl.org/dc/elements/1.1/" xmlns:cc="http://creativecommons.org/ns#" xmlns:rdf="http://www.w3.org/1999/02/22-rdf-syntax-ns#" xmlns="http://www.w3.org/2000/svg" xmlns:xlink="http://www.w3.org/1999/xlink" id="Layer_1" x="0px" y="0px" width="265.41px" height="51.718px" viewBox="0 0 265.41 51.718" xml:space="preserve"> <rect x="-350" y="-2200" fill="#FFFFFF" width="265.414" height="51.718"></rect> <g transform="matrix(1 0 0 -1 99.68 52)"> <path d="M-424.972,2230.846c0-1.023-0.139-1.977-0.417-2.861c-0.278-0.884-0.692-1.651-1.243-2.302 c-0.551-0.651-1.24-1.165-2.069-1.543s-1.793-0.567-2.895-0.567h-5.672v-9.142h-2.603v23.49h8.108c1.134,0,2.127-0.169,2.978-0.509 c0.851-0.339,1.56-0.818,2.127-1.435c0.567-0.617,0.99-1.362,1.268-2.235S-424.972,2231.902-424.972,2230.846z M-427.592,2230.829 c0,1.49-0.373,2.622-1.118,3.395s-1.869,1.16-3.37,1.16h-5.188v-9.276h5.305c1.501,0,2.605,0.406,3.312,1.218 C-427.945,2228.138-427.592,2229.306-427.592,2230.829z M-399.096,2214.43v10.877h-10.411v-10.877h-2.603v23.49h2.603v-9.943 h10.411v9.943h2.603v-23.49H-399.096z M-383.148,2214.43v23.49h14.615v-2.603h-12.012v-7.541h11.211v-2.536h-11.211v-8.208h12.545 v-2.603H-383.148z M-342.974,2214.43l-10.277,20.02l0.067-1.618c0.022-0.456,0.039-0.937,0.05-1.443 c0.011-0.506,0.017-0.953,0.017-1.343v-15.615h-2.336v23.49h3.036l10.411-20.153c-0.022,0.545-0.05,1.09-0.083,1.635 c-0.022,0.467-0.042,0.976-0.059,1.526c-0.017,0.55-0.025,1.076-0.025,1.576v15.416h2.336v-23.49H-342.974z M-308.09,2226.291 c0-1.835-0.217-3.503-0.651-5.005c-0.434-1.501-1.062-2.786-1.885-3.854c-0.823-1.068-1.827-1.891-3.012-2.469 s-2.533-0.868-4.045-0.868c-1.591,0-2.981,0.303-4.171,0.909c-1.19,0.606-2.183,1.452-2.978,2.536 c-0.795,1.084-1.393,2.372-1.793,3.862c-0.4,1.49-0.601,3.119-0.601,4.888c0,1.835,0.208,3.493,0.625,4.972 c0.417,1.479,1.032,2.739,1.844,3.779c0.812,1.04,1.813,1.841,3.003,2.402c1.19,0.562,2.558,0.842,4.104,0.842 c1.535,0,2.897-0.283,4.087-0.851s2.188-1.374,2.995-2.419c0.806-1.046,1.421-2.308,1.843-3.787 C-308.301,2229.75-308.09,2228.104-308.09,2226.291z M-310.759,2226.291c0,1.413-0.15,2.697-0.45,3.854s-0.74,2.146-1.318,2.97 c-0.578,0.823-1.295,1.457-2.152,1.902s-1.846,0.667-2.97,0.667c-1.146,0-2.152-0.222-3.02-0.667s-1.593-1.079-2.177-1.902 c-0.584-0.823-1.018-1.813-1.301-2.97s-0.425-2.441-0.425-3.854c0-1.412,0.147-2.705,0.442-3.879 c0.295-1.173,0.731-2.186,1.31-3.036c0.579-0.851,1.299-1.513,2.161-1.985s1.854-0.709,2.978-0.709 c1.201,0,2.238,0.239,3.111,0.718c0.873,0.478,1.59,1.143,2.152,1.993c0.562,0.851,0.979,1.866,1.251,3.045 S-310.759,2224.901-310.759,2226.291z M-303.669,2226.191l8.342-8.342v-15.099h102.101v47.047h-102.101v-15.099L-303.669,2226.191z M-277.843,2235.317v-20.887h-2.603v20.887h-6.606v2.603h15.815v-2.603H-277.843z M-258.557,2214.43v23.49h2.603v-23.49H-258.557z M-227.309,2230.846c0-1.023-0.139-1.977-0.417-2.861c-0.278-0.884-0.692-1.651-1.243-2.302c-0.55-0.651-1.24-1.165-2.069-1.543 s-1.793-0.567-2.895-0.567h-5.672v-9.142h-2.603v23.49h8.108c1.134,0,2.127-0.169,2.978-0.509c0.851-0.339,1.56-0.818,2.127-1.435 s0.99-1.362,1.268-2.235C-227.449,2232.867-227.309,2231.902-227.309,2230.846z M-229.929,2230.829c0,1.49-0.373,2.622-1.118,3.395 s-1.869,1.16-3.37,1.16h-5.188v-9.276h5.306c1.501,0,2.605,0.406,3.312,1.218C-230.282,2228.138-229.929,2229.306-229.929,2230.829 z M-201.034,2220.919c0-0.989-0.158-1.901-0.476-2.736c-0.317-0.834-0.803-1.554-1.459-2.161c-0.656-0.606-1.482-1.079-2.478-1.418 c-0.996-0.339-2.177-0.509-3.545-0.509c-2.402,0-4.273,0.512-5.614,1.535c-1.34,1.023-2.194,2.502-2.561,4.438l2.536,0.617 c0.122-0.611,0.363-1.13,0.722-1.556c0.358-0.425,0.763-0.819,1.213-1.18c0.451-0.362,0.963-0.68,1.539-0.956 c0.576-0.275,1.325-0.413,2.248-0.413c0.779,0,1.493,0.081,2.144,0.242c0.65,0.162,1.207,0.409,1.668,0.743 c0.462,0.333,0.823,0.765,1.084,1.293s0.392,1.16,0.392,1.894c0,0.767-0.145,1.39-0.434,1.869 c-0.289,0.478-0.692,0.873-1.209,1.185c-0.53,0.319-1.15,0.58-1.86,0.784l-2.386,0.684c-0.82,0.235-1.359,0.394-1.618,0.476 c-0.545,0.172-1.068,0.378-1.568,0.617s-0.967,0.52-1.401,0.843c-0.434,0.322-0.812,0.709-1.134,1.159 c-0.323,0.45-0.576,0.974-0.759,1.568s-0.275,1.282-0.275,2.061c0,1.112,0.187,2.065,0.559,2.861 c0.373,0.795,0.887,1.448,1.543,1.96c0.656,0.512,1.432,0.884,2.328,1.118c0.895,0.234,1.86,0.35,2.895,0.35 c1.19,0,2.21-0.114,3.061-0.342c0.851-0.228,1.568-0.57,2.152-1.026s1.051-1.021,1.401-1.693c0.351-0.673,0.631-1.455,0.843-2.344 l-2.569-0.55c-0.123,0.567-0.306,1.073-0.551,1.518c-0.245,0.445-0.564,0.817-0.959,1.118c-0.395,0.3-0.873,0.528-1.435,0.684 c-0.562,0.156-1.221,0.233-1.977,0.233c-0.89,0-1.638-0.097-2.244-0.292c-0.606-0.194-1.093-0.458-1.46-0.792 c-0.367-0.334-0.631-0.726-0.792-1.176c-0.161-0.451-0.242-0.937-0.242-1.459c0-0.701,0.145-1.276,0.434-1.727 c0.29-0.451,0.679-0.826,1.168-1.126c0.489-0.3,1.06-0.55,1.71-0.75c0.651-0.2,1.337-0.4,2.061-0.601l1.769-0.517 c0.589-0.167,1.154-0.37,1.693-0.609c0.54-0.239,1.043-0.52,1.51-0.842c0.467-0.323,0.875-0.718,1.226-1.185 c0.351-0.467,0.623-1.018,0.817-1.652C-201.131,2222.521-201.034,2221.775-201.034,2220.919z"></path> </g> <path d="M-89.737-2194.91h0.433c0.214,0,0.385-0.055,0.513-0.164c0.131-0.112,0.196-0.254,0.196-0.425 c0-0.2-0.057-0.343-0.172-0.428c-0.115-0.088-0.296-0.132-0.544-0.132h-0.425V-2194.91z M-87.999-2195.515 c0,0.214-0.057,0.403-0.172,0.568c-0.112,0.163-0.271,0.285-0.477,0.365l0.954,1.582h-0.673l-0.829-1.417h-0.541v1.417h-0.593 v-3.569h1.045c0.443,0,0.768,0.087,0.974,0.261C-88.103-2196.134-87.999-2195.87-87.999-2195.515z M-92.232-2194.786 c0-0.534,0.134-1.035,0.401-1.502c0.267-0.467,0.634-0.835,1.101-1.105c0.467-0.27,0.971-0.405,1.51-0.405 c0.534,0,1.034,0.134,1.502,0.401c0.467,0.267,0.835,0.634,1.105,1.101c0.27,0.468,0.405,0.971,0.405,1.51 c0,0.526-0.13,1.02-0.389,1.482s-0.622,0.832-1.089,1.109c-0.467,0.277-0.979,0.416-1.534,0.416c-0.553,0-1.063-0.137-1.53-0.412 c-0.467-0.278-0.832-0.647-1.093-1.109C-92.102-2193.762-92.232-2194.257-92.232-2194.786z M-91.811-2194.786 c0,0.462,0.116,0.894,0.348,1.297c0.232,0.4,0.549,0.717,0.949,0.949c0.403,0.229,0.834,0.345,1.294,0.345 c0.464,0,0.896-0.116,1.293-0.349s0.713-0.546,0.945-0.941c0.235-0.397,0.352-0.832,0.352-1.301c0-0.464-0.116-0.896-0.348-1.293 c-0.232-0.398-0.547-0.713-0.945-0.945c-0.395-0.235-0.828-0.353-1.297-0.353c-0.465,0-0.896,0.116-1.294,0.349 c-0.398,0.232-0.714,0.547-0.949,0.945C-91.695-2195.688-91.811-2195.256-91.811-2194.786z"></path> <g> <g transform="matrix(1 0 0 -1 99.68 52)"> <path fill="#006699" d="M-75.767,31.487c0-1.023-0.14-1.977-0.417-2.861c-0.278-0.884-0.692-1.651-1.243-2.302 c-0.551-0.651-1.24-1.165-2.069-1.544c-0.828-0.378-1.793-0.566-2.895-0.566h-5.672v-9.143h-2.603v23.49h8.108 c1.134,0,2.127-0.169,2.978-0.509s1.56-0.818,2.127-1.435s0.99-1.362,1.269-2.235C-75.907,33.508-75.767,32.543-75.767,31.487z M-78.387,31.47c0,1.49-0.372,2.622-1.117,3.395s-1.869,1.16-3.37,1.16h-5.188v-9.276h5.306c1.501,0,2.604,0.406,3.312,1.218 C-78.74,28.779-78.387,29.947-78.387,31.47z M-49.892,15.071v10.877h-10.41V15.071h-2.603v23.49h2.603v-9.943h10.41v9.943h2.603 v-23.49H-49.892z M-33.943,15.071v23.49h14.614v-2.603H-31.34v-7.541h11.211v-2.536H-31.34v-8.208h12.546v-2.603H-33.943z M6.231,15.071L-4.046,35.09l0.066-1.618c0.022-0.456,0.039-0.937,0.051-1.443c0.011-0.506,0.017-0.953,0.017-1.343V15.071h-2.336 v23.49h3.036l10.41-20.154c-0.021,0.545-0.05,1.09-0.083,1.636c-0.022,0.467-0.042,0.976-0.059,1.526s-0.024,1.076-0.024,1.576 v15.416h2.335v-23.49H6.231z M41.115,26.932c0-1.835-0.217-3.503-0.65-5.005c-0.434-1.501-1.062-2.786-1.885-3.854 s-1.827-1.891-3.012-2.47c-1.185-0.578-2.533-0.867-4.046-0.867c-1.59,0-2.98,0.303-4.171,0.909 c-1.189,0.606-2.183,1.452-2.978,2.536s-1.393,2.371-1.793,3.862c-0.4,1.49-0.601,3.119-0.601,4.888 c0,1.835,0.208,3.493,0.625,4.972c0.417,1.479,1.031,2.739,1.844,3.779c0.812,1.04,1.812,1.841,3.003,2.402 c1.19,0.562,2.558,0.842,4.104,0.842c1.534,0,2.896-0.283,4.087-0.851s2.188-1.374,2.995-2.419 c0.806-1.046,1.42-2.308,1.843-3.787S41.115,28.746,41.115,26.932z M38.446,26.932c0,1.413-0.15,2.697-0.45,3.854 c-0.301,1.157-0.74,2.146-1.318,2.97c-0.578,0.823-1.296,1.457-2.152,1.902s-1.846,0.667-2.969,0.667 c-1.146,0-2.152-0.222-3.021-0.667c-0.867-0.445-1.593-1.079-2.177-1.902c-0.584-0.823-1.018-1.813-1.302-2.97 c-0.283-1.157-0.425-2.441-0.425-3.854c0-1.412,0.147-2.705,0.442-3.879c0.294-1.173,0.73-2.186,1.31-3.036 c0.578-0.851,1.298-1.513,2.16-1.985s1.854-0.709,2.978-0.709c1.201,0,2.238,0.239,3.111,0.718 c0.874,0.478,1.591,1.143,2.152,1.993c0.562,0.852,0.979,1.866,1.251,3.045C38.31,24.257,38.446,25.542,38.446,26.932z M45.537,26.833l8.341-8.342V3.392h102.102v47.047H53.878V35.34L45.537,26.833z M71.362,35.958V15.071h-2.603v20.887h-6.606v2.603 h15.815v-2.603H71.362z M90.648,15.071v23.49h2.603v-23.49H90.648z M121.895,31.487c0-1.023-0.139-1.977-0.417-2.861 c-0.277-0.884-0.692-1.651-1.242-2.302c-0.551-0.651-1.24-1.165-2.069-1.544c-0.828-0.378-1.793-0.566-2.895-0.566H109.6v-9.143 h-2.603v23.49h8.107c1.135,0,2.127-0.169,2.979-0.509c0.851-0.339,1.56-0.818,2.127-1.435s0.99-1.362,1.268-2.235 C121.757,33.508,121.895,32.543,121.895,31.487z M119.276,31.47c0,1.49-0.372,2.622-1.117,3.395s-1.869,1.16-3.37,1.16H109.6 v-9.276h5.305c1.502,0,2.605,0.406,3.312,1.218C118.924,28.779,119.276,29.947,119.276,31.47z M148.172,21.56 c0-0.989-0.158-1.901-0.476-2.735c-0.316-0.834-0.804-1.555-1.46-2.161s-1.481-1.079-2.478-1.418 c-0.995-0.339-2.177-0.509-3.545-0.509c-2.402,0-4.273,0.512-5.614,1.535c-1.34,1.023-2.193,2.502-2.561,4.438l2.536,0.617 c0.122-0.611,0.362-1.13,0.722-1.556c0.358-0.425,0.763-0.819,1.214-1.181c0.45-0.361,0.963-0.68,1.539-0.955 c0.575-0.275,1.324-0.412,2.248-0.412c0.778,0,1.493,0.08,2.144,0.241s1.207,0.409,1.668,0.743 c0.462,0.333,0.823,0.764,1.085,1.293c0.261,0.527,0.392,1.159,0.392,1.893c0,0.768-0.145,1.391-0.434,1.869 s-0.692,0.873-1.21,1.185c-0.529,0.319-1.149,0.58-1.859,0.784l-2.386,0.684c-0.82,0.235-1.36,0.394-1.619,0.476 c-0.545,0.172-1.067,0.378-1.567,0.617c-0.501,0.239-0.968,0.52-1.401,0.843c-0.435,0.322-0.812,0.709-1.135,1.159 s-0.576,0.974-0.759,1.568c-0.184,0.595-0.275,1.282-0.275,2.061c0,1.112,0.186,2.065,0.559,2.861 c0.373,0.795,0.887,1.448,1.543,1.96s1.433,0.884,2.327,1.118c0.896,0.234,1.86,0.35,2.895,0.35c1.19,0,2.211-0.114,3.062-0.342 c0.851-0.228,1.568-0.57,2.152-1.026s1.051-1.021,1.401-1.693s0.631-1.455,0.843-2.344l-2.569-0.55 c-0.122,0.567-0.306,1.073-0.551,1.518c-0.244,0.445-0.564,0.817-0.959,1.118c-0.395,0.3-0.873,0.528-1.435,0.684 c-0.562,0.156-1.221,0.233-1.978,0.233c-0.89,0-1.638-0.097-2.244-0.292c-0.605-0.194-1.092-0.458-1.459-0.792 c-0.367-0.334-0.632-0.726-0.793-1.176s-0.242-0.937-0.242-1.459c0-0.701,0.146-1.276,0.435-1.727s0.678-0.826,1.167-1.126 c0.49-0.3,1.06-0.55,1.711-0.75c0.65-0.2,1.337-0.4,2.06-0.601l1.769-0.517c0.59-0.167,1.154-0.37,1.693-0.609 c0.54-0.239,1.043-0.52,1.51-0.842c0.468-0.323,0.876-0.718,1.227-1.185s0.623-1.018,0.817-1.652 C148.074,23.162,148.172,22.417,148.172,21.56z"></path> </g> <path fill="#006699" d="M259.469,4.449h0.433c0.213,0,0.384-0.055,0.513-0.164c0.131-0.112,0.195-0.254,0.195-0.425 c0-0.2-0.057-0.343-0.172-0.428c-0.114-0.088-0.296-0.132-0.545-0.132h-0.424V4.449z M261.207,3.844 c0,0.214-0.058,0.403-0.173,0.568c-0.112,0.163-0.271,0.285-0.477,0.365l0.953,1.582h-0.673l-0.829-1.417h-0.54v1.417h-0.593V2.791 h1.045c0.443,0,0.768,0.087,0.974,0.261C261.103,3.225,261.207,3.489,261.207,3.844z M256.974,4.573c0-0.534,0.133-1.035,0.4-1.502 c0.267-0.467,0.634-0.835,1.102-1.105c0.467-0.27,0.97-0.405,1.51-0.405c0.534,0,1.034,0.134,1.502,0.401 c0.467,0.267,0.835,0.634,1.105,1.101c0.27,0.468,0.404,0.971,0.404,1.51c0,0.526-0.13,1.02-0.389,1.482s-0.622,0.832-1.089,1.109 c-0.468,0.277-0.979,0.416-1.534,0.416c-0.553,0-1.062-0.137-1.53-0.412c-0.467-0.278-0.832-0.647-1.094-1.109 C257.103,5.597,256.974,5.102,256.974,4.573z M257.394,4.573c0,0.462,0.116,0.894,0.349,1.297c0.232,0.4,0.549,0.717,0.949,0.949 c0.403,0.229,0.834,0.345,1.294,0.345c0.464,0,0.896-0.116,1.293-0.349c0.398-0.232,0.713-0.546,0.945-0.941 c0.235-0.397,0.353-0.832,0.353-1.301c0-0.464-0.116-0.896-0.349-1.293c-0.231-0.398-0.547-0.713-0.944-0.945 c-0.396-0.235-0.828-0.353-1.298-0.353c-0.465,0-0.896,0.116-1.294,0.349c-0.397,0.232-0.714,0.547-0.949,0.945 C257.51,3.67,257.394,4.103,257.394,4.573z"></path> </g> </svg>